<svg xmlns="http://www.w3.org/2000/svg" xmlns:xlink="http://www.w3.org/1999/xlink" width="500" zoomAndPan="magnify" viewBox="0 0 375 74.999997" height="100" preserveAspectRatio="xMidYMid meet" version="1.0"><defs><g/><clipPath id="0d2f050f05"><path d="M 7.5 7.5 L 68.25 7.5 L 68.25 67.5 L 7.5 67.5 Z M 7.5 7.5 " clip-rule="nonzero"/></clipPath></defs><g clip-path="url(#0d2f050f05)"><path fill="#ffffff" d="M 67.925781 25.394531 C 67.601562 24.613281 66.707031 24.238281 65.929688 24.566406 L 45.945312 32.910156 L 48.898438 15.839844 C 49.039062 15.003906 48.484375 14.207031 47.652344 14.0625 C 46.820312 13.914062 46.03125 14.476562 45.886719 15.3125 L 42.957031 32.253906 L 42.683594 32.089844 L 34.324219 8.75 C 34.039062 7.953125 33.164062 7.539062 32.367188 7.828125 C 31.574219 8.113281 31.164062 8.996094 31.449219 9.792969 L 38.535156 29.574219 L 25.066406 21.40625 C 24.347656 20.96875 23.40625 21.203125 22.96875 21.929688 C 22.535156 22.65625 22.765625 23.601562 23.492188 24.039062 L 40.175781 34.15625 L 40.539062 35.167969 L 8.648438 48.488281 C 7.871094 48.8125 7.5 49.714844 7.824219 50.496094 C 8.066406 51.085938 8.636719 51.445312 9.234375 51.445312 C 9.429688 51.445312 9.628906 51.40625 9.820312 51.328125 L 41.578125 38.0625 L 41.832031 38.769531 L 39.007812 55.085938 C 38.863281 55.921875 39.421875 56.71875 40.253906 56.863281 C 40.339844 56.878906 40.429688 56.886719 40.515625 56.886719 C 41.246094 56.886719 41.890625 56.359375 42.019531 55.613281 L 43.921875 44.609375 L 51.746094 66.449219 C 51.96875 67.074219 52.558594 67.464844 53.183594 67.464844 C 53.355469 67.464844 53.53125 67.433594 53.699219 67.375 C 54.496094 67.085938 54.90625 66.203125 54.621094 65.40625 L 44.980469 38.496094 L 45.203125 37.203125 L 57.863281 44.882812 C 58.113281 45.035156 58.382812 45.105469 58.652344 45.105469 C 59.167969 45.105469 59.675781 44.839844 59.960938 44.359375 C 60.398438 43.632812 60.164062 42.691406 59.441406 42.25 L 48.066406 35.351562 L 67.101562 27.402344 C 67.878906 27.078125 68.25 26.179688 67.925781 25.394531 Z M 67.925781 25.394531 " fill-opacity="1" fill-rule="nonzero"/></g><g fill="#ffffff" fill-opacity="1"><g transform="translate(76.681222, 56.707807)"><g><path d="M 16.941406 0 L 20.015625 0 L 12.789062 -19.460938 L 8.253906 -19.460938 L 1.023438 0 L 4.066406 0 L 5.792969 -4.625 L 15.214844 -4.625 Z M 6.699219 -7.050781 L 10.503906 -17.324219 L 14.308594 -7.050781 Z M 6.699219 -7.050781 "/></g></g></g><g fill="#ffffff" fill-opacity="1"><g transform="translate(97.631312, 56.707807)"><g><path d="M 10.328125 -19.460938 L 1.902344 -19.460938 L 1.902344 0 L 10.328125 0 C 16.707031 0 19.488281 -4.476562 19.488281 -9.773438 C 19.488281 -15.011719 16.707031 -19.460938 10.328125 -19.460938 Z M 9.746094 -2.429688 L 4.917969 -2.429688 L 4.917969 -17.03125 L 9.746094 -17.03125 C 14.574219 -17.03125 16.328125 -14.632812 16.328125 -9.773438 C 16.328125 -4.917969 14.574219 -2.429688 9.746094 -2.429688 Z M 9.746094 -2.429688 "/></g></g></g><g fill="#ffffff" fill-opacity="1"><g transform="translate(118.4351, 56.707807)"><g/></g></g><g fill="#ffffff" fill-opacity="1"><g transform="translate(125.63303, 56.707807)"><g><path d="M 16.941406 0 L 20.015625 0 L 12.789062 -19.460938 L 8.253906 -19.460938 L 1.023438 0 L 4.066406 0 L 5.792969 -4.625 L 15.214844 -4.625 Z M 6.699219 -7.050781 L 10.503906 -17.324219 L 14.308594 -7.050781 Z M 6.699219 -7.050781 "/></g></g></g><g fill="#ffffff" fill-opacity="1"><g transform="translate(146.583121, 56.707807)"><g><path d="M 1.40625 -6.527344 C 1.40625 -2.867188 3.570312 0.46875 9.949219 0.46875 C 15.507812 0.46875 17.851562 -1.753906 17.851562 -5.589844 C 17.851562 -8.808594 15.800781 -10.359375 12.40625 -10.855469 L 7.636719 -11.558594 C 5.824219 -11.820312 5.03125 -12.875 5.03125 -14.308594 C 5.03125 -16.269531 6.410156 -17.644531 9.570312 -17.644531 C 12.875 -17.644531 14.425781 -16.09375 14.71875 -13.753906 L 17.644531 -13.753906 C 17.382812 -17.234375 15.070312 -19.984375 9.597656 -19.984375 C 4.390625 -19.984375 1.988281 -17.46875 1.988281 -14.222656 C 1.988281 -11.179688 3.714844 -9.453125 7.023438 -8.984375 L 11.53125 -8.339844 C 13.722656 -8.019531 14.808594 -7.023438 14.808594 -5.207031 C 14.808594 -3.21875 13.871094 -1.871094 9.949219 -1.871094 C 6.117188 -1.871094 4.417969 -3.570312 4.332031 -6.527344 Z M 1.40625 -6.527344 "/></g></g></g><g fill="#ffffff" fill-opacity="1"><g transform="translate(165.894654, 56.707807)"><g><path d="M 17.527344 -19.460938 L 1.023438 -19.460938 L 1.023438 -17.03125 L 7.785156 -17.03125 L 7.785156 0 L 10.796875 0 L 10.796875 -17.03125 L 17.527344 -17.03125 Z M 17.527344 -19.460938 "/></g></g></g><g fill="#ffffff" fill-opacity="1"><g transform="translate(184.445427, 56.707807)"><g><path d="M 16.824219 -5.03125 C 16.824219 -7.753906 15.597656 -8.601562 13.636719 -9.246094 C 15.800781 -9.804688 17.441406 -11.53125 17.441406 -14.191406 C 17.441406 -17.410156 15.273438 -19.460938 11.207031 -19.460938 L 1.902344 -19.460938 L 1.902344 0 L 4.917969 0 L 4.917969 -8.425781 L 9.832031 -8.425781 C 12.347656 -8.425781 13.898438 -7.402344 13.898438 -4.59375 L 13.898438 -3.074219 C 13.898438 -1.492188 14.105469 -0.496094 14.28125 0 L 17.234375 0 C 17.089844 -0.554688 16.824219 -1.609375 16.824219 -3.191406 Z M 11.003906 -10.652344 L 4.917969 -10.652344 L 4.917969 -17.03125 L 10.886719 -17.03125 C 13.253906 -17.03125 14.28125 -15.890625 14.28125 -13.988281 C 14.28125 -11.910156 13.488281 -10.652344 11.003906 -10.652344 Z M 11.003906 -10.652344 "/></g></g></g><g fill="#ffffff" fill-opacity="1"><g transform="translate(203.639922, 56.707807)"><g><path d="M 16.941406 0 L 20.015625 0 L 12.789062 -19.460938 L 8.253906 -19.460938 L 1.023438 0 L 4.066406 0 L 5.792969 -4.625 L 15.214844 -4.625 Z M 6.699219 -7.050781 L 10.503906 -17.324219 L 14.308594 -7.050781 Z M 6.699219 -7.050781 "/></g></g></g><g fill="#ffffff" fill-opacity="1"><g transform="translate(224.590012, 56.707807)"><g/></g></g><g fill="#ffffff" fill-opacity="1"><g transform="translate(231.787943, 56.707807)"><g><path d="M 1.40625 -6.527344 C 1.40625 -2.867188 3.570312 0.46875 9.949219 0.46875 C 15.507812 0.46875 17.851562 -1.753906 17.851562 -5.589844 C 17.851562 -8.808594 15.800781 -10.359375 12.40625 -10.855469 L 7.636719 -11.558594 C 5.824219 -11.820312 5.03125 -12.875 5.03125 -14.308594 C 5.03125 -16.269531 6.410156 -17.644531 9.570312 -17.644531 C 12.875 -17.644531 14.425781 -16.09375 14.71875 -13.753906 L 17.644531 -13.753906 C 17.382812 -17.234375 15.070312 -19.984375 9.597656 -19.984375 C 4.390625 -19.984375 1.988281 -17.46875 1.988281 -14.222656 C 1.988281 -11.179688 3.714844 -9.453125 7.023438 -8.984375 L 11.53125 -8.339844 C 13.722656 -8.019531 14.808594 -7.023438 14.808594 -5.207031 C 14.808594 -3.21875 13.871094 -1.871094 9.949219 -1.871094 C 6.117188 -1.871094 4.417969 -3.570312 4.332031 -6.527344 Z M 1.40625 -6.527344 "/></g></g></g><g fill="#ffffff" fill-opacity="1"><g transform="translate(251.099476, 56.707807)"><g><path d="M 17.527344 -19.460938 L 1.023438 -19.460938 L 1.023438 -17.03125 L 7.785156 -17.03125 L 7.785156 0 L 10.796875 0 L 10.796875 -17.03125 L 17.527344 -17.03125 Z M 17.527344 -19.460938 "/></g></g></g><g fill="#ffffff" fill-opacity="1"><g transform="translate(269.650249, 56.707807)"><g><path d="M 1.902344 -7.082031 C 1.902344 -2.222656 4.566406 0.46875 10.007812 0.46875 C 15.449219 0.46875 18.113281 -2.253906 18.113281 -7.082031 L 18.113281 -19.460938 L 15.097656 -19.460938 L 15.097656 -7.519531 C 15.097656 -2.957031 13.285156 -2.019531 10.007812 -2.019531 C 6.730469 -2.019531 4.917969 -2.957031 4.917969 -7.519531 L 4.917969 -19.460938 L 1.902344 -19.460938 Z M 1.902344 -7.082031 "/></g></g></g><g fill="#ffffff" fill-opacity="1"><g transform="translate(289.664033, 56.707807)"><g><path d="M 10.328125 -19.460938 L 1.902344 -19.460938 L 1.902344 0 L 10.328125 0 C 16.707031 0 19.488281 -4.476562 19.488281 -9.773438 C 19.488281 -15.011719 16.707031 -19.460938 10.328125 -19.460938 Z M 9.746094 -2.429688 L 4.917969 -2.429688 L 4.917969 -17.03125 L 9.746094 -17.03125 C 14.574219 -17.03125 16.328125 -14.632812 16.328125 -9.773438 C 16.328125 -4.917969 14.574219 -2.429688 9.746094 -2.429688 Z M 9.746094 -2.429688 "/></g></g></g><g fill="#ffffff" fill-opacity="1"><g transform="translate(310.467821, 56.707807)"><g><path d="M 12.875 -17.03125 L 12.875 -19.460938 L 1.902344 -19.460938 L 1.902344 -17.03125 L 5.882812 -17.03125 L 5.882812 -2.429688 L 1.902344 -2.429688 L 1.902344 0 L 12.875 0 L 12.875 -2.429688 L 8.894531 -2.429688 L 8.894531 -17.03125 Z M 12.875 -17.03125 "/></g></g></g><g fill="#ffffff" fill-opacity="1"><g transform="translate(325.244082, 56.707807)"><g><path d="M 11.472656 0.496094 C 18.433594 0.496094 21.332031 -4.039062 21.332031 -9.746094 C 21.332031 -15.363281 18.433594 -19.984375 11.472656 -19.984375 C 4.507812 -19.984375 1.609375 -15.390625 1.609375 -9.746094 C 1.609375 -4.007812 4.507812 0.496094 11.472656 0.496094 Z M 4.769531 -9.746094 C 4.769531 -14.867188 6.699219 -17.5 11.472656 -17.5 C 16.242188 -17.5 18.171875 -14.867188 18.171875 -9.746094 C 18.171875 -4.625 16.242188 -1.988281 11.472656 -1.988281 C 6.699219 -1.988281 4.769531 -4.625 4.769531 -9.746094 Z M 4.769531 -9.746094 "/></g></g></g><g fill="#ffffff" fill-opacity="1"><g transform="translate(348.183845, 56.707807)"><g><path d="M 1.40625 -6.527344 C 1.40625 -2.867188 3.570312 0.46875 9.949219 0.46875 C 15.507812 0.46875 17.851562 -1.753906 17.851562 -5.589844 C 17.851562 -8.808594 15.800781 -10.359375 12.40625 -10.855469 L 7.636719 -11.558594 C 5.824219 -11.820312 5.03125 -12.875 5.03125 -14.308594 C 5.03125 -16.269531 6.410156 -17.644531 9.570312 -17.644531 C 12.875 -17.644531 14.425781 -16.09375 14.71875 -13.753906 L 17.644531 -13.753906 C 17.382812 -17.234375 15.070312 -19.984375 9.597656 -19.984375 C 4.390625 -19.984375 1.988281 -17.46875 1.988281 -14.222656 C 1.988281 -11.179688 3.714844 -9.453125 7.023438 -8.984375 L 11.53125 -8.339844 C 13.722656 -8.019531 14.808594 -7.023438 14.808594 -5.207031 C 14.808594 -3.21875 13.871094 -1.871094 9.949219 -1.871094 C 6.117188 -1.871094 4.417969 -3.570312 4.332031 -6.527344 Z M 1.40625 -6.527344 "/></g></g></g></svg>